<svg width="55" height="56" viewBox="0 0 55 56" fill="none" xmlns="http://www.w3.org/2000/svg">
<rect y="0.741211" width="55" height="55" rx="15" fill="#F2F4FF"/>
<path d="M39.25 27.4912V24.9912H36.75V22.4912C36.748 21.8288 36.484 21.194 36.0156 20.7256C35.5472 20.2572 34.9124 19.9932 34.25 19.9912H31.75V17.4912H29.25V19.9912H26.75V17.4912H24.25V19.9912H21.75C21.0876 19.9932 20.4528 20.2572 19.9844 20.7256C19.516 21.194 19.252 21.8288 19.25 22.4912V24.9912H16.75V27.4912H19.25V29.9912H16.75V32.4912H19.25V34.9912C19.252 35.6536 19.516 36.2884 19.9844 36.7568C20.4528 37.2252 21.0876 37.4892 21.75 37.4912H24.25V39.9912H26.75V37.4912H29.25V39.9912H31.75V37.4912H34.25C34.9124 37.4892 35.5472 37.2252 36.0156 36.7568C36.484 36.2884 36.748 35.6536 36.75 34.9912V32.4912H39.25V29.9912H36.75V27.4912H39.25ZM34.25 34.9912H21.75V22.4912H34.25V34.9912Z" fill="#002A3B"/>
<path d="M27.2011 23.7412H25.5198L23.0073 33.7412H24.2911L24.8711 31.3975H27.7661L28.3311 33.7412H29.6586L27.2011 23.7412ZM25.0398 30.3962L26.3123 24.9287H26.3698L27.5986 30.3962H25.0398ZM30.8048 23.7412H32.0548V33.7412H30.8048V23.7412Z" fill="#002A3B"/>
</svg>
