<svg width="15" height="16" viewBox="0 0 15 16" fill="none" xmlns="http://www.w3.org/2000/svg">
<g clip-path="url(#clip0_1_197)">
<path d="M0.00195312 3.55371C0.00195312 3.05643 0.199497 2.57952 0.551128 2.22789C0.902759 1.87626 1.37967 1.67871 1.87695 1.67871H13.127C13.6242 1.67871 14.1011 1.87626 14.4528 2.22789C14.8044 2.57952 15.002 3.05643 15.002 3.55371V12.9287C15.002 13.426 14.8044 13.9029 14.4528 14.2545C14.1011 14.6062 13.6242 14.8037 13.127 14.8037H1.87695C1.37967 14.8037 0.902759 14.6062 0.551128 14.2545C0.199497 13.9029 0.00195313 13.426 0.00195312 12.9287V3.55371ZM0.939453 11.9912V12.9287C0.939453 13.1774 1.03823 13.4158 1.21404 13.5916C1.38986 13.7674 1.62831 13.8662 1.87695 13.8662H13.127C13.3756 13.8662 13.614 13.7674 13.7899 13.5916C13.9657 13.4158 14.0645 13.1774 14.0645 12.9287V9.64746L10.5235 7.82215C10.4356 7.77811 10.3361 7.76283 10.239 7.77848C10.1419 7.79412 10.0522 7.8399 9.98258 7.90934L6.50445 11.3875L4.0107 9.72621C3.92067 9.66627 3.81267 9.63931 3.70502 9.6499C3.59737 9.66049 3.4967 9.70799 3.42008 9.78434L0.939453 11.9912ZM5.62695 5.89746C5.62695 5.5245 5.4788 5.16681 5.21507 4.90309C4.95135 4.63937 4.59366 4.49121 4.2207 4.49121C3.84774 4.49121 3.49006 4.63937 3.22633 4.90309C2.96261 5.16681 2.81445 5.5245 2.81445 5.89746C2.81445 6.27042 2.96261 6.62811 3.22633 6.89183C3.49006 7.15555 3.84774 7.30371 4.2207 7.30371C4.59366 7.30371 4.95135 7.15555 5.21507 6.89183C5.4788 6.62811 5.62695 6.27042 5.62695 5.89746Z" fill="#44924C"/>
</g>
<defs>
<clipPath id="clip0_1_197">
<rect width="15" height="15" fill="white" transform="translate(0 0.741211)"/>
</clipPath>
</defs>
</svg>
