<svg width="55" height="56" viewBox="0 0 55 56" fill="none" xmlns="http://www.w3.org/2000/svg">
<rect y="0.741211" width="55" height="55" rx="15" fill="#F2F4FF"/>
<g clip-path="url(#clip0_1_161)">
<path d="M36.875 21.6392V22.3434C36.875 24.1496 38.2969 24.0736 38.4375 24.0736C38.5896 24.0736 40 24.16 40 22.3434V21.6392C40 19.833 38.5781 19.909 38.4375 19.909C38.2854 19.909 36.875 19.8225 36.875 21.6392ZM39.0885 21.5246V22.4475C39.0885 23.1798 38.8604 23.4267 38.4479 23.4267C38.0354 23.4267 37.7969 23.1798 37.7969 22.4475V21.5257C37.7969 20.8121 38.0365 20.5653 38.4375 20.5653C38.85 20.5548 39.0885 20.8121 39.0885 21.5257V21.5246ZM36.875 28.9309V29.635C36.875 31.4413 38.2969 31.3653 38.4375 31.3653C38.5896 31.3653 40 31.4517 40 29.635V28.9309C40 27.1246 38.5781 27.2007 38.4375 27.2007C38.2854 27.2007 36.875 27.1142 36.875 28.9309ZM39.0885 28.8163V29.7392C39.0885 30.4715 38.8604 30.7184 38.4479 30.7184C38.0354 30.7184 37.7969 30.4715 37.7969 29.7392V28.8173C37.7969 28.1038 38.0365 27.8569 38.4375 27.8569C38.85 27.8465 39.0885 28.1038 39.0885 28.8173V28.8163ZM36.875 36.2225V36.9267C36.875 38.733 38.2969 38.6569 38.4375 38.6569C38.5896 38.6569 40 38.7434 40 36.9267V36.2225C40 34.4163 38.5781 34.4923 38.4375 34.4923C38.2854 34.4923 36.875 34.4059 36.875 36.2225ZM39.0885 36.108V37.0309C39.0885 37.7632 38.8604 38.01 38.4479 38.01C38.0354 38.01 37.7969 37.7632 37.7969 37.0309V36.109C37.7969 35.3955 38.0365 35.1486 38.4375 35.1486C38.85 35.1382 39.0885 35.3955 39.0885 36.109V36.108ZM32.7083 25.8059V26.51C32.7083 28.3163 34.1302 28.2403 34.2708 28.2403C34.4229 28.2403 35.8333 28.3267 35.8333 26.51V25.8059C35.8333 23.9996 34.4115 24.0757 34.2708 24.0757C34.1187 24.0757 32.7083 23.9892 32.7083 25.8059ZM34.9219 25.6913V26.6142C34.9219 27.3465 34.6938 27.5934 34.2812 27.5934C33.8687 27.5934 33.6302 27.3465 33.6302 26.6142V25.6923C33.6302 24.9788 33.8698 24.7319 34.2708 24.7319C34.6833 24.7215 34.9219 24.9788 34.9219 25.6923V25.6913ZM32.7083 17.3975V18.0715L33.75 17.8236V20.9496H34.7917V16.783M32.7083 31.9809V32.6548L33.75 32.4069V35.533H34.7927V31.3663M31.6667 37.6163V40.7413H15V37.6163C15 34.8455 20.5521 33.4496 23.3333 33.4496C26.1146 33.4496 31.6667 34.8455 31.6667 37.6163Z" fill="#002A3B"/>
<path d="M23.3332 32.4078C25.6344 32.4078 27.4998 30.5423 27.4998 28.2411C27.4998 25.9399 25.6344 24.0745 23.3332 24.0745C21.032 24.0745 19.1665 25.9399 19.1665 28.2411C19.1665 30.5423 21.032 32.4078 23.3332 32.4078Z" fill="#002A3B"/>
<path d="M33.6304 40.2755C33.6304 39.562 33.87 39.3151 34.271 39.3151C34.6835 39.3047 34.922 39.562 34.922 40.2755V40.7411H35.8335V40.3891C35.8335 38.5828 34.4116 38.6589 34.271 38.6589C34.1189 38.6589 32.7085 38.5724 32.7085 40.3891V40.7411H33.6304V40.2755Z" fill="#002A3B"/>
</g>
<defs>
<clipPath id="clip0_1_161">
<rect width="25" height="25" fill="white" transform="translate(15 15.7412)"/>
</clipPath>
</defs>
</svg>
