<svg width="47" height="48" viewBox="0 0 47 48" fill="none" xmlns="http://www.w3.org/2000/svg">
<path d="M36.7188 11.0225H10.2812C7.84775 11.0225 5.875 12.9952 5.875 15.4287V35.9912C5.875 38.4247 7.84775 40.3975 10.2812 40.3975H36.7188C39.1523 40.3975 41.125 38.4247 41.125 35.9912V15.4287C41.125 12.9952 39.1523 11.0225 36.7188 11.0225Z" stroke="#0FA958" stroke-width="2" stroke-linecap="round" stroke-linejoin="round"/>
<path d="M30.1094 27.1787H16.8906C14.8627 27.1787 13.2188 28.8227 13.2188 30.8506C13.2188 32.8785 14.8627 34.5225 16.8906 34.5225H30.1094C32.1373 34.5225 33.7812 32.8785 33.7812 30.8506C33.7812 28.8227 32.1373 27.1787 30.1094 27.1787Z" stroke="#0FA958" stroke-width="2" stroke-linecap="round" stroke-linejoin="round"/>
<path d="M27.1719 27.1787V34.5225" stroke="#0FA958" stroke-width="2" stroke-linecap="round" stroke-linejoin="round"/>
<path d="M19.8281 27.1787V34.5225" stroke="#0FA958" stroke-width="2" stroke-linecap="round" stroke-linejoin="round"/>
<path d="M23.5 11.0225V3.67871" stroke="#0FA958" stroke-width="2" stroke-linecap="round" stroke-linejoin="round"/>
<path d="M15.4219 22.7725C16.6386 22.7725 17.625 21.7861 17.625 20.5693C17.625 19.3526 16.6386 18.3662 15.4219 18.3662C14.2051 18.3662 13.2188 19.3526 13.2188 20.5693C13.2188 21.7861 14.2051 22.7725 15.4219 22.7725Z" fill="#0FA958"/>
<path d="M31.5781 22.7725C32.7949 22.7725 33.7812 21.7861 33.7812 20.5693C33.7812 19.3526 32.7949 18.3662 31.5781 18.3662C30.3614 18.3662 29.375 19.3526 29.375 20.5693C29.375 21.7861 30.3614 22.7725 31.5781 22.7725Z" fill="#0FA958"/>
</svg>
