<svg width="55" height="56" viewBox="0 0 55 56" fill="none" xmlns="http://www.w3.org/2000/svg">
<path d="M32.6562 24.8037H41.25" stroke="#0FA958" stroke-width="2" stroke-linecap="round" stroke-linejoin="round"/>
<path d="M32.6562 31.6787H41.25" stroke="#0FA958" stroke-width="2" stroke-linecap="round" stroke-linejoin="round"/>
<path d="M19.7876 31.6787C22.6353 31.6787 24.9438 29.3702 24.9438 26.5225C24.9438 23.6747 22.6353 21.3662 19.7876 21.3662C16.9399 21.3662 14.6313 23.6747 14.6313 26.5225C14.6313 29.3702 16.9399 31.6787 19.7876 31.6787Z" stroke="#0FA958" stroke-width="2" stroke-linecap="round" stroke-linejoin="round"/>
<path d="M13.1274 36.835C13.5061 35.3562 14.3661 34.0454 15.572 33.1094C16.7779 32.1734 18.2611 31.6653 19.7876 31.6653C21.3141 31.6653 22.7973 32.1734 24.0032 33.1094C25.209 34.0454 26.0691 35.3562 26.4478 36.835" stroke="#0FA958" stroke-width="2" stroke-linecap="round" stroke-linejoin="round"/>
<path d="M46.4062 11.0537H8.59375C7.64451 11.0537 6.875 11.8232 6.875 12.7725V43.71C6.875 44.6592 7.64451 45.4287 8.59375 45.4287H46.4062C47.3555 45.4287 48.125 44.6592 48.125 43.71V12.7725C48.125 11.8232 47.3555 11.0537 46.4062 11.0537Z" stroke="#0FA958" stroke-width="2" stroke-linecap="round" stroke-linejoin="round"/>
</svg>
