<svg width="55" height="56" viewBox="0 0 55 56" fill="none" xmlns="http://www.w3.org/2000/svg">
<rect y="0.741211" width="55" height="55" rx="15" fill="#F2F4FF"/>
<g clip-path="url(#clip0_1_167)">
<path d="M26.9165 18.0745H29.0832V19.1578H26.9165V18.0745Z" fill="#002A3B"/>
<path d="M24.7498 19.1579C25.3481 19.1579 25.8332 18.6729 25.8332 18.0745C25.8332 17.4762 25.3481 16.9912 24.7498 16.9912C24.1515 16.9912 23.6665 17.4762 23.6665 18.0745C23.6665 18.6729 24.1515 19.1579 24.7498 19.1579Z" fill="#002A3B"/>
<path d="M31.2498 19.1579C31.8481 19.1579 32.3332 18.6729 32.3332 18.0745C32.3332 17.4762 31.8481 16.9912 31.2498 16.9912C30.6515 16.9912 30.1665 17.4762 30.1665 18.0745C30.1665 18.6729 30.6515 19.1579 31.2498 19.1579Z" fill="#002A3B"/>
<path d="M34.5 24.5745H29.0833V22.4079L32.3333 22.397C33.1934 22.397 34.0184 22.0561 34.6276 21.449C35.2368 20.8418 35.5805 20.018 35.5833 19.1579V16.9912C35.5808 16.13 35.2375 15.3049 34.6286 14.696C34.0197 14.087 33.1945 13.7438 32.3333 13.7412H23.6667C22.8055 13.7438 21.9803 14.087 21.3714 14.696C20.7625 15.3049 20.4192 16.13 20.4167 16.9912V19.1579C20.4192 20.019 20.7625 20.8442 21.3714 21.4531C21.9803 22.0621 22.8055 22.4053 23.6667 22.4079H26.9167V24.5745H21.5C20.6388 24.5771 19.8137 24.9204 19.2047 25.5293C18.5958 26.1382 18.2526 26.9634 18.25 27.8245V36.4912C18.2526 37.3524 18.5958 38.1775 19.2047 38.7865C19.8137 39.3954 20.6388 39.7386 21.5 39.7412H34.5C35.3612 39.7386 36.1863 39.3954 36.7953 38.7865C37.4042 38.1775 37.7474 37.3524 37.75 36.4912V27.8245C37.7474 26.9634 37.4042 26.1382 36.7953 25.5293C36.1863 24.9204 35.3612 24.5771 34.5 24.5745ZM23.6667 20.2412C23.3796 20.2404 23.1046 20.1259 22.9016 19.923C22.6986 19.72 22.5842 19.4449 22.5833 19.1579V16.9912C22.5842 16.7042 22.6986 16.4291 22.9016 16.2261C23.1046 16.0231 23.3796 15.9087 23.6667 15.9079H32.3225C32.6107 15.9084 32.887 16.0224 33.0918 16.2251C33.2965 16.4279 33.4133 16.7031 33.4167 16.9912V19.1579C33.4133 19.446 33.2965 19.7212 33.0918 19.924C32.887 20.1267 32.6107 20.2407 32.3225 20.2412H23.6667ZM28.4713 35.4859L28 35.9495L27.5287 35.4815C25.855 33.8273 24.75 32.7364 24.75 31.3974C24.7375 31.1517 24.774 30.9059 24.8574 30.6744C24.9408 30.4429 25.0694 30.2304 25.2358 30.0491C25.4021 29.8678 25.6029 29.7214 25.8264 29.6185C26.0499 29.5156 26.2916 29.4581 26.5375 29.4495C26.8212 29.4548 27.1001 29.5241 27.3534 29.6522C27.6066 29.7803 27.8277 29.964 28 30.1895C28.1724 29.964 28.3934 29.7803 28.6466 29.6522C28.8999 29.5241 29.1788 29.4548 29.4625 29.4495C29.7084 29.4581 29.9501 29.5156 30.1736 29.6185C30.3971 29.7214 30.5979 29.8678 30.7642 30.0491C30.9306 30.2304 31.0592 30.4429 31.1426 30.6744C31.226 30.9059 31.2625 31.1517 31.25 31.3974C31.25 32.7364 30.145 33.8273 28.4713 35.4859Z" fill="#002A3B"/>
</g>
<defs>
<clipPath id="clip0_1_167">
<rect width="26" height="26" fill="white" transform="translate(15 13.7412)"/>
</clipPath>
</defs>
</svg>
