<svg width="43" height="44" viewBox="0 0 43 44" fill="none" xmlns="http://www.w3.org/2000/svg">
<path d="M5.375 27.6162V30.3037H10.1937L2.6875 37.8099L4.58756 39.71L12.0938 32.2038V37.0225H14.7812V27.6162H5.375ZM25.5312 14.1787H34.9375V16.8662H25.5312V14.1787ZM25.5312 20.8975H34.9375V23.585H25.5312V20.8975ZM25.5312 27.6162H34.9375V30.3037H25.5312V27.6162Z" fill="#0FA958"/>
<path d="M37.625 7.45996H5.375C4.66245 7.46067 3.97929 7.74405 3.47544 8.2479C2.97159 8.75175 2.68821 9.43491 2.6875 10.1475V23.585H5.375V10.1475H20.1562V37.0225H37.625C38.3376 37.0217 39.0207 36.7384 39.5246 36.2345C40.0284 35.7307 40.3118 35.0475 40.3125 34.335V10.1475C40.3118 9.43491 40.0284 8.75175 39.5246 8.2479C39.0207 7.74405 38.3376 7.46067 37.625 7.45996ZM22.8438 34.335V10.1475H37.625L37.6277 34.335H22.8438Z" fill="#0FA958"/>
</svg>
