<svg width="24" height="25" viewBox="0 0 24 25" fill="none" xmlns="http://www.w3.org/2000/svg">
<path d="M19 4.74121H17V3.74121C17 3.47599 16.8946 3.22164 16.7071 3.0341C16.5196 2.84657 16.2652 2.74121 16 2.74121C15.7348 2.74121 15.4804 2.84657 15.2929 3.0341C15.1054 3.22164 15 3.47599 15 3.74121V4.74121H9V3.74121C9 3.47599 8.89464 3.22164 8.70711 3.0341C8.51957 2.84657 8.26522 2.74121 8 2.74121C7.73478 2.74121 7.48043 2.84657 7.29289 3.0341C7.10536 3.22164 7 3.47599 7 3.74121V4.74121H5C4.20435 4.74121 3.44129 5.05728 2.87868 5.61989C2.31607 6.1825 2 6.94556 2 7.74121V19.7412C2 20.5369 2.31607 21.2999 2.87868 21.8625C3.44129 22.4251 4.20435 22.7412 5 22.7412H19C19.7956 22.7412 20.5587 22.4251 21.1213 21.8625C21.6839 21.2999 22 20.5369 22 19.7412V7.74121C22 6.94556 21.6839 6.1825 21.1213 5.61989C20.5587 5.05728 19.7956 4.74121 19 4.74121V4.74121ZM20 19.7412C20 20.0064 19.8946 20.2608 19.7071 20.4483C19.5196 20.6359 19.2652 20.7412 19 20.7412H5C4.73478 20.7412 4.48043 20.6359 4.29289 20.4483C4.10536 20.2608 4 20.0064 4 19.7412V12.7412H20V19.7412ZM20 10.7412H4V7.74121C4 7.47599 4.10536 7.22164 4.29289 7.0341C4.48043 6.84657 4.73478 6.74121 5 6.74121H7V7.74121C7 8.00643 7.10536 8.26078 7.29289 8.44832C7.48043 8.63585 7.73478 8.74121 8 8.74121C8.26522 8.74121 8.51957 8.63585 8.70711 8.44832C8.89464 8.26078 9 8.00643 9 7.74121V6.74121H15V7.74121C15 8.00643 15.1054 8.26078 15.2929 8.44832C15.4804 8.63585 15.7348 8.74121 16 8.74121C16.2652 8.74121 16.5196 8.63585 16.7071 8.44832C16.8946 8.26078 17 8.00643 17 7.74121V6.74121H19C19.2652 6.74121 19.5196 6.84657 19.7071 7.0341C19.8946 7.22164 20 7.47599 20 7.74121V10.7412Z" fill="#808080"/>
</svg>
