<svg width="39" height="31" viewBox="0 0 39 31" fill="none" xmlns="http://www.w3.org/2000/svg">
<path d="M26 6.74121C26 8.33251 25.3152 9.85863 24.0962 10.9839C22.8772 12.1091 21.2239 12.7412 19.5 12.7412C17.7761 12.7412 16.1228 12.1091 14.9038 10.9839C13.6848 9.85863 13 8.33251 13 6.74121C13 5.14991 13.6848 3.62379 14.9038 2.49857C16.1228 1.37335 17.7761 0.741211 19.5 0.741211C21.2239 0.741211 22.8772 1.37335 24.0962 2.49857C25.3152 3.62379 26 5.14991 26 6.74121ZM36.8333 10.7412C36.8333 11.8021 36.3768 12.8195 35.5641 13.5696C34.7515 14.3198 33.6493 14.7412 32.5 14.7412C31.3507 14.7412 30.2485 14.3198 29.4359 13.5696C28.6232 12.8195 28.1667 11.8021 28.1667 10.7412C28.1667 9.68034 28.6232 8.66293 29.4359 7.91278C30.2485 7.16264 31.3507 6.74121 32.5 6.74121C33.6493 6.74121 34.7515 7.16264 35.5641 7.91278C36.3768 8.66293 36.8333 9.68034 36.8333 10.7412ZM28.1667 24.7412C28.1667 22.6195 27.2536 20.5846 25.6283 19.0844C24.0029 17.5841 21.7985 16.7412 19.5 16.7412C17.2015 16.7412 14.9971 17.5841 13.3717 19.0844C11.7464 20.5846 10.8333 22.6195 10.8333 24.7412V30.7412H28.1667V24.7412ZM10.8333 10.7412C10.8333 11.8021 10.3768 12.8195 9.56413 13.5696C8.75147 14.3198 7.64927 14.7412 6.5 14.7412C5.35073 14.7412 4.24853 14.3198 3.43587 13.5696C2.62321 12.8195 2.16667 11.8021 2.16667 10.7412C2.16667 9.68034 2.62321 8.66293 3.43587 7.91278C4.24853 7.16264 5.35073 6.74121 6.5 6.74121C7.64927 6.74121 8.75147 7.16264 9.56413 7.91278C10.3768 8.66293 10.8333 9.68034 10.8333 10.7412ZM32.5 30.7412V24.7412C32.5031 22.7078 31.9438 20.7073 30.875 18.9292C31.8356 18.7023 32.8396 18.6809 33.8105 18.8666C34.7814 19.0524 35.6936 19.4404 36.4773 20.001C37.2611 20.5617 37.8958 21.2801 38.3329 22.1016C38.7701 22.9231 38.9983 23.8259 39 24.7412V30.7412H32.5ZM8.125 18.9292C7.05629 20.7073 6.49696 22.7078 6.5 24.7412V30.7412H5.75727e-07V24.7412C-0.000417014 23.8253 0.226337 22.9214 0.662885 22.0989C1.09943 21.2764 1.73419 20.5571 2.5185 19.996C3.30281 19.435 4.21586 19.0472 5.18767 18.8622C6.15948 18.6773 7.16426 18.7002 8.125 18.9292Z" fill="#0FA958"/>
</svg>
